<svg id="Layer_1" data-name="Layer 1" xmlns="http://www.w3.org/2000/svg" viewBox="0 0 200 75"><defs><style>.cls-1{fill:#878787}.cls-2{fill:none;stroke:#878787;stroke-miterlimit:10}</style></defs><title>Artboard 1</title><path class="cls-1" d="M57.7 48.83V46l2.3-.26c.5-.07.58-.18.58-.72V26.59c0-.54-.07-.68-.58-.72l-2.27-.25v-2.85h12v2.84l-3 .29c-.54 0-.58.18-.58.68V45h6.41c.4 0 .5 0 .58-.4l.58-3.6h4v7.85zM79.77 39.58c0-6 3.13-9.86 9.72-9.86s9.25 4 9.25 9.47c0 6.12-3.1 10.08-9.72 10.08s-9.25-4.04-9.25-9.69zm13.28-.21c0-4.25-1.3-5.76-3.63-5.76s-4 1.48-4 5.79 1.4 6.08 3.82 6.08 3.81-1.61 3.81-6.11zM116.31 33.39a5.7 5.7 0 0 1 1.33 3.61c0 4-3.13 6.34-7.67 6.34a11.4 11.4 0 0 1-2.84-.32l-1.19 1.91 3.53.22c6.23.4 9.9.58 9.9 5.36 0 4.14-3.64 6.48-9.9 6.48-6.51 0-9-1.66-9-4.5 0-1.62.72-2.48 2-3.67a2.4 2.4 0 0 1-1.58-2.38 3.23 3.23 0 0 1 1-2.2c.65-.68 1.37-1.37 2.23-2.16a5.75 5.75 0 0 1-3.1-5.4c0-4.14 2.74-7 8.24-7a12.38 12.38 0 0 1 3.31.36h7v3.06zM105.65 49.8a3.2 3.2 0 0 0-.94 1.91c0 1.44 1.84 1.87 4.36 1.87 2.09 0 4.93-.14 4.93-2.09 0-1.15-1.37-1.22-3.1-1.33zm4-16.52c-2 0-3.46 1-3.46 3.31 0 1.76 1 3 3.35 3 2 0 3.38-1.19 3.38-3.06a3 3 0 0 0-3.31-3.25zM120.63 39.58c0-6 3.13-9.86 9.72-9.86s9.25 4 9.25 9.47c0 6.12-3.1 10.08-9.72 10.08s-9.25-4.04-9.25-9.69zm13.28-.21c0-4.25-1.3-5.76-3.63-5.76s-4 1.48-4 5.79 1.4 6.08 3.82 6.08 3.81-1.61 3.81-6.11z"/><path class="cls-2" d="M1.5 1.67h197v71.67H1.5z"/></svg>
